<svg id="blocked" xmlns="http://www.w3.org/2000/svg" width="12.271" height="12.271" viewBox="0 0 12.271 12.271">
  <path id="Path_11601" data-name="Path 11601" d="M8.528,1.549,4.438.015a.284.284,0,0,0-.184,0L.164,1.549A.256.256,0,0,0,0,1.79V5.077a5.713,5.713,0,0,0,4.29,5.655.312.312,0,0,0,.112,0,3.5,3.5,0,0,0,.516-.164A4.279,4.279,0,0,1,4.6,8.948a4.352,4.352,0,0,1,4.09-4.341V1.79a.256.256,0,0,0-.164-.24Z" fill="#e9e9e9"/>
  <path id="Path_11602" data-name="Path 11602" d="M14.323,11a3.323,3.323,0,1,0,3.323,3.323A3.327,3.327,0,0,0,14.323,11Zm0,1.023a2.279,2.279,0,0,1,1.22.358L12.38,15.543a2.291,2.291,0,0,1,1.943-3.521Zm0,4.6a2.279,2.279,0,0,1-1.22-.358L16.267,13.1a2.279,2.279,0,0,1,.358,1.22,2.3,2.3,0,0,1-2.3,2.3Z" transform="translate(-5.376 -5.376)" fill="#e9e9e9"/>
</svg>
