<svg xmlns="http://www.w3.org/2000/svg" width="17.753" height="26.968" viewBox="0 0 17.753 26.968">
  <g id="file" transform="translate(0 0)">
    <path id="Path_11577" data-name="Path 11577" d="M17.753,5.275c0-.006,0-.012,0-.017a.525.525,0,0,0-.008-.067h0a.553.553,0,0,0-.018-.066l-.006-.016a.57.57,0,0,0-.026-.06l0,0a.517.517,0,0,0-.036-.058l-.01-.014A.531.531,0,0,0,17.6,4.92L12.833.154A.532.532,0,0,0,12.78.108L12.766.1a.5.5,0,0,0-.058-.036l0,0a.552.552,0,0,0-.059-.026L12.629.028A.539.539,0,0,0,12.564.01h0A.558.558,0,0,0,12.5,0H.527A.527.527,0,0,0,0,.526V23.071a.527.527,0,0,0,.527.527h7.93v2.843a.527.527,0,0,0,.807.446l2.006-1.259,2.006,1.259a.527.527,0,0,0,.807-.446V23.6h3.144a.527.527,0,0,0,.527-.527V5.293c0-.006,0-.012,0-.018ZM12.988,1.8l2.968,2.968H12.988ZM8.2,16.269a1.618,1.618,0,0,1-.1-.332,1.563,1.563,0,0,1,.271-.2,1.912,1.912,0,0,0,.555-.463A1.9,1.9,0,0,0,9.2,14.6a1.7,1.7,0,0,1,.1-.305.659.659,0,0,1,.13-.009c.059,0,.124,0,.194.007s.162.008.248.008a1.493,1.493,0,0,0,.482-.068,1.986,1.986,0,0,0,.608-.375,1.35,1.35,0,0,1,.308-.212,1.259,1.259,0,0,1,.313.212,1.988,1.988,0,0,0,.608.375,1.493,1.493,0,0,0,.482.068c.086,0,.168,0,.248-.008s.135-.007.194-.007a.644.644,0,0,1,.13.009,1.688,1.688,0,0,1,.1.305,1.9,1.9,0,0,0,.275.674,1.91,1.91,0,0,0,.555.463,1.579,1.579,0,0,1,.271.2,1.629,1.629,0,0,1-.1.332,2.086,2.086,0,0,0-.167.723,2.093,2.093,0,0,0,.167.724,1.618,1.618,0,0,1,.1.332,1.58,1.58,0,0,1-.271.2,1.5,1.5,0,0,0-.83,1.138,1.71,1.71,0,0,1-.1.305.66.66,0,0,1-.13.009c-.059,0-.124,0-.194-.007s-.162-.008-.248-.008a1.493,1.493,0,0,0-.482.068,1.991,1.991,0,0,0-.608.375,1.312,1.312,0,0,1-.311.211,1.312,1.312,0,0,1-.31-.211,1.994,1.994,0,0,0-.608-.375,1.493,1.493,0,0,0-.482-.068c-.086,0-.168,0-.248.008s-.135.007-.194.007a.66.66,0,0,1-.13-.009,1.7,1.7,0,0,1-.1-.305,1.9,1.9,0,0,0-.275-.674,1.907,1.907,0,0,0-.555-.463,1.569,1.569,0,0,1-.271-.2,1.633,1.633,0,0,1,.1-.332,2.086,2.086,0,0,0,.167-.723,2.09,2.09,0,0,0-.167-.724Zm4.832,9.22-1.479-.928a.528.528,0,0,0-.56,0l-1.479.928v-4.74l.164-.006c.07,0,.136-.007.2-.007a.517.517,0,0,1,.149.014,1.418,1.418,0,0,1,.28.2,1.551,1.551,0,0,0,.971.444,1.551,1.551,0,0,0,.971-.444,1.412,1.412,0,0,1,.28-.2.52.52,0,0,1,.149-.014c.059,0,.125,0,.2.007l.164.006v4.74Zm1.053-2.944v-2.22a1.917,1.917,0,0,0,.277-.679,1.355,1.355,0,0,1,.1-.315,1.367,1.367,0,0,1,.268-.2,1.486,1.486,0,0,0,.71-.753,1.522,1.522,0,0,0-.111-1.029,1.423,1.423,0,0,1-.1-.361,1.422,1.422,0,0,1,.1-.361,1.522,1.522,0,0,0,.111-1.029,1.486,1.486,0,0,0-.71-.753,1.385,1.385,0,0,1-.268-.2,1.361,1.361,0,0,1-.1-.315,1.47,1.47,0,0,0-.493-.895,1.252,1.252,0,0,0-.756-.21c-.085,0-.167,0-.247.008s-.136.007-.195.007a.517.517,0,0,1-.149-.014,1.406,1.406,0,0,1-.28-.2,1.553,1.553,0,0,0-.971-.444,1.552,1.552,0,0,0-.971.444,1.415,1.415,0,0,1-.28.2.519.519,0,0,1-.149.014c-.059,0-.125,0-.2-.007s-.162-.008-.247-.008a1.25,1.25,0,0,0-.755.21,1.47,1.47,0,0,0-.493.895,1.366,1.366,0,0,1-.1.315,1.385,1.385,0,0,1-.268.2,1.487,1.487,0,0,0-.71.753,1.522,1.522,0,0,0,.111,1.029,1.422,1.422,0,0,1,.1.361,1.423,1.423,0,0,1-.1.361A1.522,1.522,0,0,0,7.1,18.382a1.488,1.488,0,0,0,.71.753,1.378,1.378,0,0,1,.268.2,1.366,1.366,0,0,1,.1.315,1.916,1.916,0,0,0,.278.679v2.22h-7.4V1.053h10.88v4.24a.527.527,0,0,0,.527.527H16.7V22.545Zm0,0" transform="translate(0 0)" fill="#fff" fill-rule="evenodd"/>
    <path id="Path_11578" data-name="Path 11578" d="M49.39,91.545h6.786a.527.527,0,0,0,0-1.053H49.39a.527.527,0,0,0,0,1.053Zm0,0" transform="translate(-46.289 -85.726)" fill="#fff" fill-rule="evenodd"/>
    <path id="Path_11579" data-name="Path 11579" d="M61,140.969H49.391a.527.527,0,1,0,0,1.053H61a.527.527,0,1,0,0-1.053Zm0,0" transform="translate(-46.29 -133.544)" fill="#fff" fill-rule="evenodd"/>
    <path id="Path_11580" data-name="Path 11580" d="M58.9,191.445h-9.5a.527.527,0,0,0,0,1.053h9.5a.527.527,0,1,0,0-1.053Zm0,0" transform="translate(-46.29 -181.361)" fill="#fff" fill-rule="evenodd"/>
    <path id="Path_11581" data-name="Path 11581" d="M269.836,191.445a.527.527,0,1,0,.527.527A.528.528,0,0,0,269.836,191.445Zm0,0" transform="translate(-255.123 -181.361)" fill="#fff" fill-rule="evenodd"/>
  </g>
</svg>
