<svg xmlns="http://www.w3.org/2000/svg" width="17.16" height="19.787" viewBox="0 0 17.16 19.787">
  <g id="certificate" transform="translate(-33.976)">
    <path id="Path_11661" data-name="Path 11661" d="M36.436,443.507H35.07a2.232,2.232,0,0,1-1.092-.282v.146a2.512,2.512,0,0,0,2.512,2.512h.246a2.273,2.273,0,0,1-.3-1.13Z" transform="translate(-0.002 -426.096)" fill="#fff"/>
    <path id="Path_11662" data-name="Path 11662" d="M44.333,38.925A4.877,4.877,0,0,1,43.18,32.6h-9.2V46.444a1.148,1.148,0,0,0,.325.831,1.068,1.068,0,0,0,.767.318h2.525V50a1.133,1.133,0,0,0,1.13,1.13h8.722V45.266l-3.112,1.769Zm-7-3.025h2.673V37.06H37.338Zm5.31,8.232h-5.31V42.973h5.31Zm0-2.358h-5.31V40.616h5.31Zm0-2.358h-5.31V38.258h5.31Z" transform="translate(0 -31.341)" fill="#fff"/>
    <path id="Path_11663" data-name="Path 11663" d="M332.911,212.287a4.857,4.857,0,0,1-1.919-.393v5.513l2-1.134,1.995,1.134v-5.582A4.854,4.854,0,0,1,332.911,212.287Z" transform="translate(-285.538 -203.639)" fill="#fff"/>
    <circle id="Ellipse_12" data-name="Ellipse 12" cx="1.04" cy="1.04" r="1.04" transform="translate(46.333 2.724)" fill="#fff"/>
    <path id="Path_11664" data-name="Path 11664" d="M287.014,7.527a3.764,3.764,0,1,0-3.764-3.764A3.768,3.768,0,0,0,287.014,7.527Zm2.2-3.764a2.2,2.2,0,1,1-2.2-2.2A2.2,2.2,0,0,1,289.213,3.764Z" transform="translate(-239.641)" fill="#fff"/>
  </g>
</svg>
