<svg xmlns="http://www.w3.org/2000/svg" width="14.459" height="23.427" viewBox="0 0 14.459 23.427">
  <g id="XMLID_86_" transform="translate(-98)">
    <path id="XMLID_107_" d="M109.828,0h-9.2A2.634,2.634,0,0,0,98,2.631V20.8a2.634,2.634,0,0,0,2.631,2.631h9.2a2.634,2.634,0,0,0,2.631-2.631V2.631A2.634,2.634,0,0,0,109.828,0Zm-9.2,1.373h9.2a1.26,1.26,0,0,1,1.258,1.258V18.073H99.373V2.631A1.26,1.26,0,0,1,100.631,1.373Zm9.2,20.681h-9.2A1.26,1.26,0,0,1,99.373,20.8v-1.35h11.713V20.8A1.26,1.26,0,0,1,109.828,22.054Z" transform="translate(0)" fill="#fff"/>
    <path id="XMLID_122_" d="M241.686,437a.686.686,0,0,0-.686.686v.091a.686.686,0,1,0,1.373,0v-.091A.686.686,0,0,0,241.686,437Z" transform="translate(-136.457 -417.006)" fill="#fff"/>
  </g>
</svg>
