<svg xmlns="http://www.w3.org/2000/svg" width="21.941" height="16.456" viewBox="0 0 21.941 16.456">
  <g id="envelope" transform="translate(0 -64)">
    <g id="Group_1457" data-name="Group 1457" transform="translate(0 64)">
      <path id="Path_11576" data-name="Path 11576" d="M20.112,64H1.828A1.83,1.83,0,0,0,0,65.828v12.8a1.83,1.83,0,0,0,1.828,1.828H20.113a1.83,1.83,0,0,0,1.828-1.828v-12.8A1.83,1.83,0,0,0,20.112,64Zm-18.284.914H20.113a.87.87,0,0,1,.19.038c-1.583,1.449-6.832,6.251-8.669,7.905a.917.917,0,0,1-1.327,0C8.47,71.2,3.221,66.4,1.638,64.953A.874.874,0,0,1,1.828,64.914ZM.914,78.627v-12.8a.883.883,0,0,1,.051-.253c1.212,1.109,4.874,4.459,7.249,6.619C5.847,74.228,2.184,77.7.962,78.866A.881.881,0,0,1,.914,78.627Zm19.2.914H1.828a.874.874,0,0,1-.206-.042c1.262-1.2,4.949-4.7,7.274-6.686l.8.722a1.826,1.826,0,0,0,2.551,0l.8-.723C15.37,74.8,19.056,78.3,20.319,79.5A.873.873,0,0,1,20.112,79.541Zm.914-.914a.883.883,0,0,1-.048.238c-1.222-1.165-4.885-4.638-7.252-6.671,2.375-2.16,6.037-5.51,7.249-6.619a.883.883,0,0,1,.051.253Z" transform="translate(0 -64)" fill="#fff"/>
    </g>
  </g>
</svg>
