<svg xmlns="http://www.w3.org/2000/svg" width="16.781" height="20.114" viewBox="0 0 16.781 20.114">
  <g id="Group_1459" data-name="Group 1459" transform="translate(-3482.112 -4639)">
    <path id="Path_407" data-name="Path 407" d="M91.876,9.689A4.688,4.688,0,0,0,95.3,8.27a4.688,4.688,0,0,0,1.419-3.425A4.688,4.688,0,0,0,95.3,1.419a4.843,4.843,0,0,0-6.851,0,4.688,4.688,0,0,0-1.419,3.425A4.688,4.688,0,0,0,88.451,8.27,4.689,4.689,0,0,0,91.876,9.689ZM89.285,2.253a3.665,3.665,0,0,1,5.184,0,3.5,3.5,0,0,1,1.074,2.592,3.5,3.5,0,0,1-1.074,2.592,3.664,3.664,0,0,1-5.184,0A3.5,3.5,0,0,1,88.21,4.844a3.5,3.5,0,0,1,1.074-2.592Zm0,0" transform="translate(3398.499 4639)" fill="#fff"/>
    <path id="Path_408" data-name="Path 408" d="M16.74,253.067a11.965,11.965,0,0,0-.163-1.271,10.013,10.013,0,0,0-.313-1.278,6.313,6.313,0,0,0-.525-1.192,4.492,4.492,0,0,0-.792-1.032,3.492,3.492,0,0,0-1.138-.715,3.932,3.932,0,0,0-1.453-.263,1.474,1.474,0,0,0-.787.334c-.236.154-.512.332-.82.529a4.7,4.7,0,0,1-1.061.468,4.122,4.122,0,0,1-2.6,0,4.687,4.687,0,0,1-1.061-.467c-.305-.2-.581-.373-.821-.529a1.473,1.473,0,0,0-.787-.334,3.928,3.928,0,0,0-1.452.263,3.49,3.49,0,0,0-1.138.715,4.494,4.494,0,0,0-.792,1.032,6.324,6.324,0,0,0-.525,1.192A10.035,10.035,0,0,0,.2,251.8a11.885,11.885,0,0,0-.163,1.271c-.027.384-.04.784-.04,1.188a3.34,3.34,0,0,0,.992,2.527,3.571,3.571,0,0,0,2.556.932h9.685a3.571,3.571,0,0,0,2.556-.932,3.339,3.339,0,0,0,.992-2.527c0-.405-.014-.8-.041-1.188Zm-1.764,2.861a2.4,2.4,0,0,1-1.743.608H3.548a2.4,2.4,0,0,1-1.743-.607,2.181,2.181,0,0,1-.626-1.673c0-.377.012-.749.037-1.106A10.718,10.718,0,0,1,1.363,252a8.853,8.853,0,0,1,.275-1.127,5.149,5.149,0,0,1,.428-.969,3.332,3.332,0,0,1,.582-.763,2.318,2.318,0,0,1,.757-.471,2.711,2.711,0,0,1,.928-.179c.041.022.115.064.234.141.242.158.522.338.83.535a5.84,5.84,0,0,0,1.332.6,5.3,5.3,0,0,0,3.321,0,5.849,5.849,0,0,0,1.333-.6c.316-.2.587-.377.83-.535.119-.078.193-.12.234-.141a2.713,2.713,0,0,1,.929.179,2.322,2.322,0,0,1,.757.471,3.322,3.322,0,0,1,.582.763,5.132,5.132,0,0,1,.428.969A8.834,8.834,0,0,1,15.417,252a10.812,10.812,0,0,1,.147,1.145h0c.025.356.038.728.038,1.106a2.181,2.181,0,0,1-.626,1.673Zm0,0" transform="translate(3482.112 4401.399)" fill="#fff"/>
  </g>
</svg>
