<svg xmlns="http://www.w3.org/2000/svg" width="30.018" height="26.94" viewBox="0 0 30.018 26.94">
  <g id="menu" transform="translate(0 -26.256)">
    <g id="Group_1501" data-name="Group 1501" transform="translate(0 26.256)">
      <path id="Path_11612" data-name="Path 11612" d="M28.094,30.1H1.924a1.924,1.924,0,1,1,0-3.848h26.17a1.924,1.924,0,0,1,0,3.848Z" transform="translate(0 -26.256)" fill="#092950"/>
      <path id="Path_11613" data-name="Path 11613" d="M17.318,227.028H1.924a1.924,1.924,0,0,1,0-3.849H17.318a1.924,1.924,0,0,1,0,3.849Z" transform="translate(0 -211.634)" fill="#092950"/>
    </g>
    <path id="Path_11614" data-name="Path 11614" d="M398.849,227.028H395.77a1.924,1.924,0,0,1,0-3.849h3.079a1.924,1.924,0,0,1,0,3.849Z" transform="translate(-370.755 -185.378)" fill="#092950"/>
    <path id="Path_11615" data-name="Path 11615" d="M28.094,423.951H1.924a1.924,1.924,0,0,1,0-3.849h26.17a1.924,1.924,0,0,1,0,3.849Z" transform="translate(0 -370.755)" fill="#092950"/>
  </g>
</svg>
