<svg xmlns="http://www.w3.org/2000/svg" width="18.704" height="24.555" viewBox="0 0 18.704 24.555">
  <g id="Group_1462" data-name="Group 1462" transform="translate(-3483.236 -4876)">
    <path id="Path_402" data-name="Path 402" d="M79.493,5.966,73.738.211A.72.72,0,0,0,73.229,0H63.158A2.161,2.161,0,0,0,61,2.158V22.4a2.161,2.161,0,0,0,2.158,2.158H77.546A2.161,2.161,0,0,0,79.7,22.4V6.474A.726.726,0,0,0,79.493,5.966Zm-5.544-3.51,3.3,3.3h-2.58a.72.72,0,0,1-.719-.719Zm3.6,20.66H63.158a.72.72,0,0,1-.719-.719V2.158a.72.72,0,0,1,.719-.719H72.51v3.6a2.161,2.161,0,0,0,2.158,2.158h3.6V22.4A.72.72,0,0,1,77.546,23.116Z" transform="translate(3422.236 4876)" fill="#fff"/>
    <path id="Path_403" data-name="Path 403" d="M160.352,212h-8.633a.719.719,0,1,0,0,1.439h8.633a.719.719,0,1,0,0-1.439Z" transform="translate(3336.552 4674.167)" fill="#fff"/>
    <path id="Path_404" data-name="Path 404" d="M160.352,272h-8.633a.719.719,0,1,0,0,1.439h8.633a.719.719,0,1,0,0-1.439Z" transform="translate(3336.552 4617.045)" fill="#fff"/>
    <path id="Path_405" data-name="Path 405" d="M160.352,332h-8.633a.719.719,0,1,0,0,1.439h8.633a.719.719,0,1,0,0-1.439Z" transform="translate(3336.552 4559.922)" fill="#fff"/>
    <path id="Path_406" data-name="Path 406" d="M157.474,392h-5.755a.719.719,0,0,0,0,1.439h5.755a.719.719,0,0,0,0-1.439Z" transform="translate(3336.552 4502.8)" fill="#fff"/>
  </g>
</svg>
