<svg xmlns="http://www.w3.org/2000/svg" width="23.087" height="32.571" viewBox="0 0 23.087 32.571">
  <g id="reading" transform="translate(-72.296)">
    <g id="Group_1466" data-name="Group 1466" transform="translate(72.296)">
      <path id="Path_11585" data-name="Path 11585" d="M93.809,21.513V18.123l-1.431.557,0-.009-.034-.062a3.683,3.683,0,0,0-2.434-1.629l-3.443-.627v-.272a5.256,5.256,0,0,0,2.524-3.531,2.1,2.1,0,0,0,1.673-2.055V5.312A3.291,3.291,0,0,0,88.31,2.154l-.262-.262a6.461,6.461,0,0,0-11.03,4.569v4.033a2.1,2.1,0,0,0,1.673,2.055,5.257,5.257,0,0,0,2.524,3.531v.272l-3.443.626a3.684,3.684,0,0,0-2.433,1.627l-.031.077-1.439-.56v3.391A1.576,1.576,0,0,0,72.3,23.087v2.1a1.576,1.576,0,0,0,1.574,1.574v1.933l9.97,3.878,9.97-3.878V26.761a1.576,1.576,0,0,0,1.574-1.574v-2.1A1.576,1.576,0,0,0,93.809,21.513ZM87.447,17.6l2.272.413a2.629,2.629,0,0,1,1.657,1.058L86.3,21.043ZM82.31,16.562a5.228,5.228,0,0,0,3.059,0l-1.53,1.147Zm.731,1.86-1.071,1.07-.695-2.084.334-.06Zm3.029-1.073.334.06-.695,2.084-1.071-1.07ZM89.087,11.4V9.591a1.04,1.04,0,0,1,0,1.807Zm-10.494,0a1.04,1.04,0,0,1,0-1.807Zm0-3.527v.6a2.081,2.081,0,0,0-.525.217V6.461a5.411,5.411,0,0,1,9.238-3.826l.463.463.141.035a2.243,2.243,0,0,1,1.7,2.179V8.687a2.062,2.062,0,0,0-.525-.217v-.6H87.423a4.564,4.564,0,0,1-3.634-1.816L83.372,5.5,82.33,6.541a4.515,4.515,0,0,1-3.212,1.33Zm1.049,3.673V8.9a5.554,5.554,0,0,0,3.43-1.614l.2-.2A5.621,5.621,0,0,0,87.423,8.92h.614v2.624a4.2,4.2,0,1,1-8.4,0Zm-1.681,6.468,2.272-.413,1.148,3.445L76.3,19.069A2.628,2.628,0,0,1,77.961,18.011Zm-4.615,7.175v-2.1a.525.525,0,0,1,.525-.525,1.574,1.574,0,0,1,0,3.148A.525.525,0,0,1,73.345,25.186Zm9.97,6.054-8.4-3.264V26.538a2.618,2.618,0,0,0,0-4.8V19.657l8.4,3.265ZM81.757,21.19l2.083-2.083,2.083,2.083L83.84,22Zm11,6.786-8.4,3.264V22.922l8.4-3.265v2.079a2.618,2.618,0,0,0,0,4.8Zm1.574-2.789a.525.525,0,0,1-.525.525,1.574,1.574,0,1,1,0-3.148.525.525,0,0,1,.525.525Z" transform="translate(-72.296)" fill="#fff"/>
    </g>
  </g>
</svg>
