<svg xmlns="http://www.w3.org/2000/svg" width="24.498" height="24.498" viewBox="0 0 24.498 24.498">
  <g id="request" transform="translate(-0.001 0)">
    <path id="Path_11593" data-name="Path 11593" d="M338.833,217.616a.718.718,0,1,1-.718-.718A.718.718,0,0,1,338.833,217.616Zm0,0" transform="translate(-321.253 -206.52)" fill="#fff"/>
    <path id="Path_11594" data-name="Path 11594" d="M299.873,72.3a2.637,2.637,0,0,0-2.639,2.639h0a.718.718,0,1,0,1.435,0,1.2,1.2,0,1,1,1.2,1.205.718.718,0,0,0-.718.718v.769a.718.718,0,1,0,1.435,0v-.15a2.64,2.64,0,0,0-.719-5.18Zm0,0" transform="translate(-283.012 -68.842)" fill="#fff"/>
    <path id="Path_11595" data-name="Path 11595" d="M6.888,247.786a3.793,3.793,0,1,0-4.651,0A4.556,4.556,0,0,0,0,251.712v1.538a.718.718,0,0,0,.718.718H8.406a.718.718,0,0,0,.718-.718v-1.538a4.557,4.557,0,0,0-2.236-3.926ZM2.2,244.793a2.357,2.357,0,1,1,2.357,2.357A2.36,2.36,0,0,1,2.2,244.793Zm5.484,7.739H1.436v-.82a3.126,3.126,0,1,1,6.252,0v.82Zm0,0" transform="translate(0 -229.469)" fill="#fff"/>
    <path id="Path_11596" data-name="Path 11596" d="M205.05,0h-9.225A3.022,3.022,0,0,0,192.8,3.024V16.861a.718.718,0,0,0,1.148.574l2.884-2.163h8.217a3.022,3.022,0,0,0,3.024-3.024V3.024A3.022,3.022,0,0,0,205.05,0Zm1.589,12.249a1.587,1.587,0,0,1-1.589,1.589h-8.456a.718.718,0,0,0-.431.144l-1.927,1.445V3.024a1.587,1.587,0,0,1,1.589-1.589h9.225a1.587,1.587,0,0,1,1.589,1.589Zm0,0" transform="translate(-183.575)" fill="#fff"/>
  </g>
</svg>
