<svg id="Group_1456" data-name="Group 1456" xmlns="http://www.w3.org/2000/svg" width="15.832" height="20.431" viewBox="0 0 15.832 20.431">
  <path id="Path_11564" data-name="Path 11564" d="M72.489,0h-13.9a.967.967,0,0,0-.966.966v18.5a.967.967,0,0,0,.966.966H69.912a.3.3,0,0,0,.206-.087l3.249-3.23a.3.3,0,0,0,.088-.212V.966A.967.967,0,0,0,72.489,0ZM70.206,19.412V17.39A.191.191,0,0,1,70.4,17.2h2.034Zm2.651-2.81-2.459,0h0a.79.79,0,0,0-.79.79v2.442H58.589a.368.368,0,0,1-.368-.368V.966A.368.368,0,0,1,58.589.6h13.9a.368.368,0,0,1,.368.368Z" transform="translate(-57.623)" fill="#fff"/>
  <path id="Path_11565" data-name="Path 11565" d="M300.193,72.3a.3.3,0,0,0,.386-.173l.206-.54h1.387l.2.539a.3.3,0,0,0,.56-.211l-1.11-2.941,0-.008a.365.365,0,0,0-.339-.227h0a.365.365,0,0,0-.339.228l0,.007-1.12,2.941A.3.3,0,0,0,300.193,72.3Zm1.288-2.542.464,1.23h-.933Z" transform="translate(-290.329 -65.998)" fill="#fff"/>
  <path id="Path_11566" data-name="Path 11566" d="M260.881,41.153a3.622,3.622,0,0,0,1.328.248,3.307,3.307,0,0,0,2.332-.891,3.237,3.237,0,0,0,0-4.157c-.739-.9-2.064-1.318-3.833-1.2a.3.3,0,0,0,.041.6c1.093-.074,2.558.035,3.329.979a2.655,2.655,0,0,1,.036,3.356,2.937,2.937,0,0,1-3.015.508,1.85,1.85,0,0,1-1.263-1.693,2.041,2.041,0,0,1,1.339-2,.3.3,0,1,0-.218-.557,2.626,2.626,0,0,0-1.719,2.571,2.424,2.424,0,0,0,1.641,2.232Z" transform="translate(-251.194 -33.733)" fill="#fff"/>
  <path id="Path_11567" data-name="Path 11567" d="M100.449,217.168h11.84a.3.3,0,1,0,0-.6h-11.84a.3.3,0,1,0,0,.6Z" transform="translate(-98.453 -207.928)" fill="#fff"/>
  <path id="Path_11568" data-name="Path 11568" d="M307.879,253.378h-3.71a.3.3,0,1,0,0,.6h3.71a.3.3,0,1,0,0-.6Z" transform="translate(-294.043 -243.267)" fill="#fff"/>
  <path id="Path_11569" data-name="Path 11569" d="M100.449,253.975h6.741a.3.3,0,1,0,0-.6h-6.741a.3.3,0,1,0,0,.6Z" transform="translate(-98.453 -243.266)" fill="#fff"/>
  <path id="Path_11570" data-name="Path 11570" d="M100.449,290.782h11.84a.3.3,0,1,0,0-.6h-11.84a.3.3,0,1,0,0,.6Z" transform="translate(-98.453 -278.605)" fill="#fff"/>
  <path id="Path_11571" data-name="Path 11571" d="M100.449,327.589h11.84a.3.3,0,1,0,0-.6h-11.84a.3.3,0,1,0,0,.6Z" transform="translate(-98.453 -313.943)" fill="#fff"/>
  <path id="Path_11572" data-name="Path 11572" d="M190.035,364.039h-8.618a.3.3,0,1,0,0,.6h8.618a.3.3,0,1,0,0-.6Z" transform="translate(-176.19 -349.513)" fill="#fff"/>
  <path id="Path_11573" data-name="Path 11573" d="M100.449,364.4h1.857a.3.3,0,0,0,0-.6h-1.857a.3.3,0,0,0,0,.6Z" transform="translate(-98.453 -349.28)" fill="#fff"/>
  <path id="Path_11574" data-name="Path 11574" d="M251.477,400.846h-2.435a.3.3,0,0,0,0,.6h2.435a.3.3,0,1,0,0-.6Z" transform="translate(-241.117 -384.851)" fill="#fff"/>
  <path id="Path_11575" data-name="Path 11575" d="M105.221,400.846h-4.53a.3.3,0,1,0,0,.6h4.53a.3.3,0,1,0,0-.6Z" transform="translate(-98.684 -384.851)" fill="#fff"/>
</svg>
