<svg xmlns="http://www.w3.org/2000/svg" width="15.51" height="21.579" viewBox="0 0 15.51 21.579">
  <g id="book_1_" data-name="book (1)" transform="translate(-72)">
    <path id="Path_422" data-name="Path 422" d="M72.674,19.219A.674.674,0,0,1,72,18.545V2.782A2.785,2.785,0,0,1,74.782,0H86.836a.674.674,0,0,1,.674.674v15.51a.674.674,0,0,1-1.349,0V1.349H74.782a1.435,1.435,0,0,0-1.433,1.433V18.545A.674.674,0,0,1,72.674,19.219Z" fill="#fff"/>
    <path id="Path_423" data-name="Path 423" d="M86.836,374.069h-11.8a3.035,3.035,0,1,1,0-6.069h11.8a.674.674,0,1,1,0,1.349h-11.8a1.686,1.686,0,0,0,0,3.372h11.8a.674.674,0,1,1,0,1.349Z" transform="translate(0 -352.49)" fill="#fff"/>
    <path id="Path_424" data-name="Path 424" d="M140.476,425.349h-11.8a.674.674,0,0,1,0-1.349h11.8a.674.674,0,0,1,0,1.349Z" transform="translate(-53.64 -406.129)" fill="#fff"/>
    <path id="Path_425" data-name="Path 425" d="M144.674,16.859a.674.674,0,0,1-.674-.674V.674a.674.674,0,1,1,1.349,0v15.51A.674.674,0,0,1,144.674,16.859Z" transform="translate(-68.965)" fill="#fff"/>
  </g>
</svg>
