<svg xmlns="http://www.w3.org/2000/svg" width="21.313" height="19.632" viewBox="0 0 21.313 19.632">
  <g id="subscription" transform="translate(-0.001 -0.004)">
    <path id="Path_11582" data-name="Path 11582" d="M20.029,247.221a.624.624,0,0,0-.694.546A8.583,8.583,0,0,1,2.548,249.03l.747.41a.624.624,0,0,0,.6-1.095L1.98,247.294a.642.642,0,0,0-.848.246L.078,249.453a.624.624,0,0,0,.246.848.686.686,0,0,0,.848-.246l.244-.443a9.832,9.832,0,0,0,19.158-1.7.625.625,0,0,0-.546-.694Zm0,0" transform="translate(0 -236.921)" fill="#fff"/>
    <path id="Path_11583" data-name="Path 11583" d="M48.252,5.336a.624.624,0,0,0-.821.326l-.2.456A9.832,9.832,0,0,0,28.516,7.786a.624.624,0,0,0,1.222.258,8.584,8.584,0,0,1,16.43-1.226l-.791-.34a.624.624,0,1,0-.493,1.147l1.984.853a.658.658,0,0,0,.845-.316l.865-2.006a.624.624,0,0,0-.326-.821Zm0,0" transform="translate(-27.315)" fill="#fff"/>
    <path id="Path_11584" data-name="Path 11584" d="M154.164,85a.624.624,0,0,0-.624.624v.25a2.383,2.383,0,0,0,2.381,2.379h.26v.835a.624.624,0,0,0,1.249,0v-.835h.751v.835a.624.624,0,1,0,1.249,0v-.835h.26a2.383,2.383,0,0,0,2.381-2.379v-.362a2.1,2.1,0,0,0-1.53-2.015l-1.111-.31V80.122h.26a1.133,1.133,0,0,1,1.133,1.13v.1a.624.624,0,0,0,1.249,0v-.1a2.383,2.383,0,0,0-2.381-2.379h-.26v-1.3a.624.624,0,1,0-1.249,0v1.3h-.751v-1.3a.624.624,0,1,0-1.249,0v1.3h-.26a2.383,2.383,0,0,0-2.381,2.379,2.1,2.1,0,0,0,1.53,2.015l1.111.31V87h-.26a1.133,1.133,0,0,1-1.132-1.13v-.25A.624.624,0,0,0,154.164,85Zm5.265-.515.775.216a.846.846,0,0,1,.617.812v.362A1.133,1.133,0,0,1,159.688,87h-.26Zm-2-4.361h.751v2.716l-.751-.21Zm0,3.8.751.209V87h-.751Zm-2.024-1.862a.846.846,0,0,1-.617-.812,1.133,1.133,0,0,1,1.132-1.13h.26V82.28Zm0,0" transform="translate(-147.147 -73.743)" fill="#fff"/>
  </g>
</svg>
