<svg xmlns="http://www.w3.org/2000/svg" width="20.052" height="20.052" viewBox="0 0 20.052 20.052">
  <g id="Group_1465" data-name="Group 1465" transform="translate(-3482 -5150)">
    <path id="Path_11562" data-name="Path 11562" d="M10.026,20.052A10.026,10.026,0,0,1,2.937,2.937,10.026,10.026,0,0,1,17.116,17.116a9.96,9.96,0,0,1-7.09,2.937Zm0-18.8A8.773,8.773,0,1,0,18.8,10.026,8.783,8.783,0,0,0,10.026,1.253Z" transform="translate(3482 5150)" fill="#fff"/>
    <path id="Path_11563" data-name="Path 11563" d="M186.82,101.64a1.567,1.567,0,1,1,1.567-1.567.627.627,0,0,0,1.253,0,2.824,2.824,0,0,0-2.193-2.749v-.7a.627.627,0,1,0-1.253,0v.7a2.82,2.82,0,0,0,.627,5.569,1.567,1.567,0,1,1-1.567,1.567.627.627,0,0,0-1.253,0,2.824,2.824,0,0,0,2.193,2.749v.7a.627.627,0,0,0,1.253,0v-.7a2.82,2.82,0,0,0-.627-5.569Z" transform="translate(3305.468 5057.734)" fill="#fff"/>
  </g>
</svg>
