<svg xmlns="http://www.w3.org/2000/svg" width="22.095" height="13.923" viewBox="0 0 22.095 13.923">
  <path id="video-camera" d="M21.866,1.242a.469.469,0,0,0-.463-.008L16.333,4V2.34A2.343,2.343,0,0,0,13.993,0H2.341A2.343,2.343,0,0,0,0,2.34v9.241a2.343,2.343,0,0,0,2.341,2.341H13.993a2.343,2.343,0,0,0,2.341-2.341V9.951l5.07,2.768a.468.468,0,0,0,.692-.411V1.644a.468.468,0,0,0-.229-.4ZM15.4,11.582a1.406,1.406,0,0,1-1.4,1.4H2.341a1.406,1.406,0,0,1-1.4-1.4V2.34a1.406,1.406,0,0,1,1.4-1.4H13.993a1.406,1.406,0,0,1,1.4,1.4Zm5.763-.063L16.333,8.885V5.068l4.826-2.635Zm0,0" transform="translate(-0.001 0)" fill="#fff"/>
</svg>
