<svg xmlns="http://www.w3.org/2000/svg" width="21.303" height="19.891" viewBox="0 0 21.303 19.891">
  <g id="Group_1464" data-name="Group 1464" transform="translate(-3481.484 -4970)">
    <path id="Path_11557" data-name="Path 11557" d="M184.788,97.771a.624.624,0,1,0,.431-.719A.624.624,0,0,0,184.788,97.771Z" transform="translate(3304.397 4877.221)" fill="#fff"/>
    <path id="Path_11558" data-name="Path 11558" d="M21.147,29.764c-3.4-9.886-3.162-9.208-3.177-9.242a3.188,3.188,0,0,0-1.883-1.745c-.121-.042-6.957-1.641-7.154-1.709a2.1,2.1,0,0,0-2.039.451L1.036,22.91A3.222,3.222,0,0,0,0,25.275v9.546a2.037,2.037,0,0,0,2.029,2.04H14.562a2.037,2.037,0,0,0,2.029-2.04V33.9l3.493-1.5A2.027,2.027,0,0,0,21.147,29.764Zm-6.585,5.849H2.029a.787.787,0,0,1-.781-.792V25.275a1.97,1.97,0,0,1,.633-1.447C6.9,19.21,3.8,22.091,7.76,18.437a.792.792,0,0,1,.775-.182c.253.076-.193-.288,6.176,5.573a1.97,1.97,0,0,1,.633,1.447v9.546a.787.787,0,0,1-.781.792Zm5.029-4.356-3,1.284V25.275a3.222,3.222,0,0,0-1.036-2.366L11.192,18.9l4.515,1.071A1.938,1.938,0,0,1,16.815,21c3.39,9.867,3.161,9.2,3.176,9.239A.777.777,0,0,1,19.591,31.257Z" transform="translate(3481.484 4953.03)" fill="#fff"/>
    <path id="Path_11559" data-name="Path 11559" d="M152.021,201.173a.624.624,0,0,0-.817.334l-3.038,7.242a.624.624,0,1,0,1.151.483l3.038-7.242A.624.624,0,0,0,152.021,201.173Z" transform="translate(3339.531 4777.454)" fill="#fff"/>
    <path id="Path_11560" data-name="Path 11560" d="M81.061,195.2a1.978,1.978,0,1,0-1.967,2.185A2.087,2.087,0,0,0,81.061,195.2Zm-1.967.936a.969.969,0,1,1,.718-.936A.861.861,0,0,1,79.095,196.138Z" transform="translate(3407.565 4785.224)" fill="#fff"/>
    <path id="Path_11561" data-name="Path 11561" d="M230.452,312.011a2.2,2.2,0,1,0,1.967,2.185A2.087,2.087,0,0,0,230.452,312.011Zm0,3.121a.969.969,0,1,1,.718-.936A.861.861,0,0,1,230.452,315.132Z" transform="translate(3262.506 4671.181)" fill="#fff"/>
  </g>
</svg>
